<svg id="Group_8" data-name="Group 8" xmlns="http://www.w3.org/2000/svg" xmlns:xlink="http://www.w3.org/1999/xlink" width="67.589" height="71.146" viewBox="0 0 67.589 71.146">
  <defs>
    <clipPath id="clip-path">
      <path id="Clip_2" data-name="Clip 2" d="M0,0H67.589V71.146H0Z" fill="none"/>
    </clipPath>
  </defs>
  <g id="Group_3" data-name="Group 3">
    <path id="Clip_2-2" data-name="Clip 2" d="M0,0H67.589V71.146H0Z" fill="none"/>
    <g id="Group_3-2" data-name="Group 3" clip-path="url(#clip-path)">
      <path id="Fill_1" data-name="Fill 1" d="M67.588,71.146H0l.276-1.31V69.83c.257-1.218.5-2.369.75-3.543.235-1.1.468-2.224.692-3.308.519-2.5,1.055-5.091,1.662-7.618a12.571,12.571,0,0,1,3.792-6.47,13.2,13.2,0,0,1,6.852-3.161c2.665-.411,5.368-.865,7.983-1.3,1.047-.176,2.128-.357,3.2-.535a2.692,2.692,0,0,0,.289-.07c.06-.017.127-.035.2-.056,0-.133,0-.27.009-.4a5.061,5.061,0,0,0-.034-1.011c-.032-.189-.3-.414-.529-.514a21.579,21.579,0,0,1-7.139-4.921,22.478,22.478,0,0,1-4.835-7.537,21.115,21.115,0,0,1-1.26-8.837A21.257,21.257,0,0,1,21.4,3.852,21.029,21.029,0,0,1,31.87.107a2.566,2.566,0,0,0,.372-.069c.057-.013.113-.027.17-.038h2.8c.46.084.931.159,1.386.232a30.249,30.249,0,0,1,3,.584A21.282,21.282,0,0,1,52.091,9.75a20.873,20.873,0,0,1,3.411,15.5A21.3,21.3,0,0,1,45.909,39.97a22.858,22.858,0,0,1-3.254,1.746c-.623.283-.823.605-.738,1.189a3.232,3.232,0,0,1,.014.577c0,.1-.007.2-.007.315l2.272.379.019,0,.032.005,2.659.444c.753.126,1.52.247,2.261.363,1.66.261,3.377.531,5.048.882a12.252,12.252,0,0,1,10.129,9.894c.8,3.457,1.531,6.988,2.243,10.4l0,.008c.3,1.461.62,2.972.935,4.457a3.135,3.135,0,0,1,.046.336c.006.056.011.114.019.175ZM40.1,58.657h0q-.338.448-.669.881c-.632.83-1.227,1.612-1.8,2.421a1.02,1.02,0,0,0-.069.761c.209.758.431,1.527.647,2.27.3,1.027.605,2.089.881,3.14.153.584.378.762.965.762h.017c2.845-.015,5.659-.017,7.792-.017h7.8l-.059-.535-.007-.066c-.316-2.858-.623-5.638-.935-8.454L56.9,59.6c.018.1.036.183.053.26.033.157.061.292.076.428q.088.78.176,1.559c.236,2.09.48,4.252.694,6.38.05.5.212.663.642.663l.078,0c.318-.013.661-.019,1.08-.019.265,0,.532,0,.791,0s.527,0,.791,0h3.5q-.413-1.934-.813-3.834c-.625-2.956-1.216-5.747-1.843-8.591A10.2,10.2,0,0,0,53.663,48.1c-.776-.162-1.572-.289-2.343-.412-.7-.112-1.428-.228-2.136-.369a1.55,1.55,0,0,0-.3-.034c-.328,0-.495.156-.64.6-1.128,3.411-2.291,6.869-3.416,10.213L43.9,60.845c-.056.168-.115.331-.184.52-.036.1-.074.2-.115.318l-1.476-1.275-.07-.061L40.1,58.657Zm-29.4.921h0l1.121.128.077.009,1.078.123-.445,4-.554,4.986c.06.008.112.017.16.024a1.472,1.472,0,0,0,.237.027h4.335c3.651,0,7.427,0,11.145.01.4,0,.524-.183.614-.5.237-.84.482-1.693.718-2.518.3-1.057.616-2.147.917-3.223a.772.772,0,0,0-.024-.584c-.644-.885-1.292-1.738-1.979-2.641l-.006-.008-.571-.752L24.817,61l-.8.688-.1-.289c-.073-.206-.137-.383-.2-.562q-.49-1.459-.981-2.918l-.023-.069c-1.1-3.27-2.237-6.651-3.338-9.984-.14-.424-.312-.581-.634-.581a1.642,1.642,0,0,0-.316.037c-.837.167-1.7.3-2.525.435-.44.07-.893.141-1.337.217-4.8.818-7.795,3.452-8.888,7.827-.743,2.971-1.352,5.907-2,9.015-.275,1.328-.56,2.7-.853,4.06h2.5c1.251,0,2.6,0,3.972-.024.141,0,.366-.319.389-.5.147-1.187.279-2.4.407-3.565v-.008q.1-.871.192-1.742c.087-.775.179-1.534.276-2.337l0-.014q.066-.547.133-1.1Zm23.114-6.386h0L29.27,57.135l.711.941.159.211c.767,1.017,1.491,1.977,2.242,2.945A1.108,1.108,0,0,1,32.6,62.37c-.345,1.092-.662,2.213-.968,3.3-.1.346-.195.689-.293,1.031-.143.5-.278.993-.422,1.515l-.17.616h6.131l-.49-1.725c-.461-1.627-.9-3.164-1.367-4.726a1.123,1.123,0,0,1,.211-1.139c.763-.982,1.5-1.959,2.277-2.994l.838-1.112-3.064-2.66-1.477-1.283Zm7.724-7.115a1.211,1.211,0,0,0-.924.452c-.973,1-1.987,2-2.968,2.961l-.491.482c-.377.37-.755.727-1.155,1.1l-.531.5L38.5,54.21l4.02,3.486.222-.661.022-.066,3.4-10.135c-.434-.071-.866-.138-1.283-.2-1.037-.161-2.016-.313-3-.515A1.72,1.72,0,0,0,41.536,46.076Zm-15.928.042h0a3.354,3.354,0,0,0-.978.159,14.2,14.2,0,0,1-2.163.417c-.332.047-.673.095-1.011.153l1.557,4.624.047.14L25.107,57.7l1.382-1.2L32.126,51.6c-.447-.442-.9-.876-1.337-1.3-1.034-.993-2.01-1.93-2.918-2.957a2.967,2.967,0,0,0-2.263-1.228Zm2.506-3.268c-.184,1.351-.184,1.351.683,2.211l1.067,1.057c.981.972,2,1.976,2.986,2.97.207.208.394.436.592.677.1.116.193.235.3.358.523-.521,1.036-1.038,1.532-1.537,1.246-1.256,2.423-2.442,3.658-3.586a2.094,2.094,0,0,0,.59-2.149,21.563,21.563,0,0,1-11.406,0ZM33.777,2.31h0a19.5,19.5,0,1,0-.012,39h.112a19.416,19.416,0,0,0,7.632-1.55A19.739,19.739,0,0,0,51.934,29.355a19.36,19.36,0,0,0-.018-15.128A19.658,19.658,0,0,0,41.469,3.856a19.724,19.724,0,0,0-7.644-1.545h-.048Z" transform="translate(0 0)" fill="#0b6386"/>
    </g>
  </g>
  <path id="Fill_4" data-name="Fill 4" d="M8.131,19.921H5.884a5.518,5.518,0,0,1-.056-.552c0-1.754-.021-3.508.015-5.261a1.509,1.509,0,0,1,.38-.916c.953-1.016,1.963-1.977,2.929-2.981a5.047,5.047,0,0,0,.812-5.722,4.016,4.016,0,0,0-4.34-2.073A4.088,4.088,0,0,0,2.345,6.038c-.031.3-.038.6-.058.94H.017a6.3,6.3,0,0,1,1.2-4.314A6.3,6.3,0,0,1,8.428.335a6.48,6.48,0,0,1,4.361,5.953,7.112,7.112,0,0,1-2.263,5.879c-.65.617-1.246,1.294-1.909,1.9a1.481,1.481,0,0,0-.5,1.245c.029,1.513.01,3.027.01,4.612" transform="translate(26.324 6.403)" fill="#0b6386"/>
  <path id="Fill_6" data-name="Fill 6" d="M3.2,6.4H3.18A3.172,3.172,0,0,1,.913,5.431,3.143,3.143,0,0,1,0,3.164,3.21,3.21,0,0,1,3.212,0h.042A3.164,3.164,0,0,1,5.479.962,3.177,3.177,0,0,1,6.4,3.206,3.214,3.214,0,0,1,3.2,6.4Zm0-4.268a1.067,1.067,0,0,0-.74,1.807,1.028,1.028,0,0,0,.727.323H3.2a1.035,1.035,0,0,0,.731-.317,1.064,1.064,0,0,0-.687-1.813Z" transform="translate(30.593 29.881)" fill="#0b6386"/>
</svg>
