<svg xmlns="http://www.w3.org/2000/svg" width="202.054" height="203.564" viewBox="0 0 202.054 203.564">
  <g id="Group_7" data-name="Group 7" transform="translate(-199.92 -136.6)">
    <path id="Personal_Development" data-name="Personal Development" d="M4.656,18.214h-3.5V27H2.636V24.352H4.656c2.209,0,3.477-1.155,3.477-3.138C8.133,19.306,6.865,18.214,4.656,18.214Zm-.063,4.807H2.636V19.545H4.594c1.356,0,2.121.552,2.121,1.707C6.715,22.444,5.949,23.021,4.594,23.021Zm7.669-2.749a3.242,3.242,0,0,0-3.376,3.4A3.212,3.212,0,0,0,12.3,27.05a3.633,3.633,0,0,0,2.761-1.13L14.3,25.1a2.6,2.6,0,0,1-1.883.778,2.033,2.033,0,0,1-2.071-1.669h5.045C15.563,21.8,14.609,20.273,12.262,20.273Zm-1.945,2.887a1.892,1.892,0,0,1,1.958-1.732,1.715,1.715,0,0,1,1.858,1.732Zm8.02-1.506v-1.33H16.894V27h1.443V23.511a2.022,2.022,0,0,1,2.309-1.858V20.273A2.428,2.428,0,0,0,18.337,21.653Zm7.3.351.527-1.067a4.22,4.22,0,0,0-2.334-.678c-1.28,0-2.46.577-2.46,1.933-.013,2.41,3.5,1.644,3.5,3.012,0,.5-.477.715-1.092.715a3.638,3.638,0,0,1-2.234-.828l-.515,1.029a4.13,4.13,0,0,0,2.686.929c1.343,0,2.56-.615,2.56-1.983.013-2.422-3.539-1.757-3.539-2.987,0-.477.414-.665.979-.665A3.925,3.925,0,0,1,25.642,22ZM30.6,20.273a3.266,3.266,0,0,0-3.489,3.376,3.278,3.278,0,0,0,3.489,3.4,3.275,3.275,0,0,0,3.477-3.4A3.262,3.262,0,0,0,30.6,20.273Zm0,1.23a2.016,2.016,0,0,1,2.033,2.171,2.044,2.044,0,1,1-4.079,0A2.019,2.019,0,0,1,30.6,21.5Zm8.886-1.23a2.521,2.521,0,0,0-2.46,1.33v-1.28H35.582V27h1.443V23.448a1.87,1.87,0,0,1,1.9-1.82,1.487,1.487,0,0,1,1.607,1.619V27H41.97V22.846A2.333,2.333,0,0,0,39.485,20.273ZM49.325,27l-.013-4.38c-.013-1.468-.979-2.347-2.7-2.347a4.891,4.891,0,0,0-2.874.841l.59,1A3.52,3.52,0,0,1,46.3,21.44c1.054,0,1.594.5,1.594,1.343v.2H45.874c-1.607.013-2.523.791-2.523,2.008A2.114,2.114,0,0,0,45.7,27.063a2.708,2.708,0,0,0,2.209-.879V27ZM46,25.921c-.8,0-1.293-.389-1.293-.992,0-.64.439-.891,1.381-.891h1.807v.615C47.819,25.381,47.028,25.921,46,25.921Zm5.322-8.233V27h1.443V17.687Zm11.1.527h-3.6V27h3.564a4.4,4.4,0,1,0,.038-8.786Zm.038,7.455H60.295V19.545h2.1a3,3,0,0,1,3.075,3.075A2.945,2.945,0,0,1,62.454,25.67Zm8.748-5.4a3.242,3.242,0,0,0-3.376,3.4,3.212,3.212,0,0,0,3.414,3.376A3.633,3.633,0,0,0,74,25.921l-.766-.816a2.6,2.6,0,0,1-1.883.778,2.033,2.033,0,0,1-2.071-1.669h5.045C74.5,21.8,73.549,20.273,71.2,20.273Zm-1.945,2.887a1.892,1.892,0,0,1,1.958-1.732,1.715,1.715,0,0,1,1.858,1.732Zm5.271-2.837L77.113,27h1.494l2.56-6.677H79.724l-1.832,5.259-1.858-5.259Zm10.141-.05a3.242,3.242,0,0,0-3.376,3.4,3.212,3.212,0,0,0,3.414,3.376,3.633,3.633,0,0,0,2.761-1.13L86.7,25.1a2.6,2.6,0,0,1-1.883.778,2.033,2.033,0,0,1-2.071-1.669h5.045C87.97,21.8,87.016,20.273,84.669,20.273Zm-1.945,2.887a1.892,1.892,0,0,1,1.958-1.732,1.715,1.715,0,0,1,1.858,1.732Zm6.639-5.472V27h1.443V17.687Zm6.5,2.585a3.266,3.266,0,0,0-3.489,3.376,3.484,3.484,0,0,0,6.966,0A3.262,3.262,0,0,0,95.864,20.273Zm0,1.23A2.016,2.016,0,0,1,97.9,23.674a2.044,2.044,0,1,1-4.079,0A2.019,2.019,0,0,1,95.864,21.5Zm8.823-1.23a2.609,2.609,0,0,0-2.334,1.2V20.323H100.91v9.112h1.443v-3.59a2.623,2.623,0,0,0,2.36,1.2,3.093,3.093,0,0,0,3.163-3.364A3.141,3.141,0,0,0,104.688,20.273Zm-.3,5.548a2.02,2.02,0,0,1-2.033-2.184,2.037,2.037,0,1,1,4.067,0A2.027,2.027,0,0,1,104.386,25.82Zm13.706-5.548a2.453,2.453,0,0,0-2.535,1.607,2.237,2.237,0,0,0-2.322-1.607,2.467,2.467,0,0,0-2.422,1.343V20.323h-1.431V27h1.431V23.7a1.912,1.912,0,0,1,1.858-2.083,1.475,1.475,0,0,1,1.569,1.632V27h1.443V23.7a1.9,1.9,0,0,1,1.832-2.083,1.484,1.484,0,0,1,1.581,1.632V27h1.443V22.846A2.317,2.317,0,0,0,118.092,20.273Zm7.129,0a3.242,3.242,0,0,0-3.376,3.4,3.212,3.212,0,0,0,3.414,3.376,3.633,3.633,0,0,0,2.761-1.13l-.766-.816a2.6,2.6,0,0,1-1.883.778,2.033,2.033,0,0,1-2.071-1.669h5.045C128.522,21.8,127.568,20.273,125.221,20.273Zm-1.945,2.887a1.892,1.892,0,0,1,1.958-1.732,1.715,1.715,0,0,1,1.858,1.732Zm10.48-2.887a2.521,2.521,0,0,0-2.46,1.33v-1.28h-1.443V27H131.3V23.448a1.87,1.87,0,0,1,1.9-1.82,1.487,1.487,0,0,1,1.607,1.619V27h1.443V22.846A2.333,2.333,0,0,0,133.756,20.273Zm7.832,5.2a2.33,2.33,0,0,1-1,.289c-.452,0-.715-.213-.715-.9v-3.2h1.971V20.574h-1.971V18.741h-1.431v1.832H137.5v1.079h.941v3.464a1.759,1.759,0,0,0,1.87,1.945,3.206,3.206,0,0,0,1.644-.489Zm10.894-5.108.615-1.305a5.722,5.722,0,0,0-3.075-.9c-1.908,0-3.2.941-3.2,2.447,0,3.125,4.744,2.033,4.744,3.991,0,.678-.615,1.067-1.644,1.067a4.632,4.632,0,0,1-2.975-1.28l-.64,1.28a5.4,5.4,0,0,0,3.59,1.393c1.933,0,3.313-.966,3.313-2.535.013-3.163-4.732-2.134-4.732-4.054,0-.59.565-.916,1.431-.916A5.252,5.252,0,0,1,152.482,20.361ZM159.448,27h1.707l-2.661-4.092,2.473-2.586H159.31L156.36,23.31V17.687h-1.443V27h1.443V25.13l1.13-1.192Zm3.59-9.451a.86.86,0,1,0,.841.866A.832.832,0,0,0,163.037,17.549Zm-.715,2.774V27h1.431V20.323Zm3.627-2.636V27h1.443V17.687Zm3.7,0V27h1.443V17.687ZM177.094,22l.527-1.067a4.22,4.22,0,0,0-2.334-.678c-1.28,0-2.46.577-2.46,1.933-.013,2.41,3.5,1.644,3.5,3.012,0,.5-.477.715-1.092.715A3.638,3.638,0,0,1,173,25.092l-.515,1.029a4.13,4.13,0,0,0,2.686.929c1.343,0,2.56-.615,2.56-1.983.013-2.422-3.539-1.757-3.539-2.987,0-.477.414-.665.979-.665A3.926,3.926,0,0,1,177.094,22ZM.038,33.214,3.539,42H5.071l3.552-8.786H7.079L4.343,40.356,1.632,33.214Zm15.977,2.4.866-1.079a4.849,4.849,0,0,0-3.339-1.356,4.446,4.446,0,1,0-.05,8.886,4.988,4.988,0,0,0,3.4-1.443l-.879-.979a3.632,3.632,0,0,1-2.447,1.042,3.094,3.094,0,1,1,0-6.188A3.431,3.431,0,0,1,16.015,35.612Zm2.385-2.4V42h6.426V40.67H19.881V38.247h4.292V36.929H19.881V34.545h4.794v-1.33ZM31.7,38.36V33.214H30.223V38.36a3.483,3.483,0,0,0,3.828,3.7,3.473,3.473,0,0,0,3.815-3.7V33.214H36.385V38.36a2.164,2.164,0,0,1-2.322,2.372A2.192,2.192,0,0,1,31.7,38.36Zm12.1-3.088a2.521,2.521,0,0,0-2.46,1.33v-1.28H39.9V42h1.443V38.448a1.87,1.87,0,0,1,1.9-1.82,1.487,1.487,0,0,1,1.607,1.619V42h1.443V37.846A2.333,2.333,0,0,0,43.8,35.273Zm5.133-2.724a.86.86,0,1,0,.841.866A.832.832,0,0,0,48.936,32.549Zm-.715,2.774V42h1.431V35.323ZM55.2,40.469a2.33,2.33,0,0,1-1,.289c-.452,0-.715-.213-.715-.9v-3.2H55.45V35.574H53.48V33.741H52.049v1.832h-.941v1.079h.941v3.464a1.759,1.759,0,0,0,1.87,1.945,3.206,3.206,0,0,0,1.644-.489ZM60.7,37l.527-1.067a4.22,4.22,0,0,0-2.334-.678c-1.28,0-2.46.577-2.46,1.933-.013,2.41,3.5,1.644,3.5,3.012,0,.5-.477.715-1.092.715a3.638,3.638,0,0,1-2.234-.828l-.515,1.029a4.13,4.13,0,0,0,2.686.929c1.343,0,2.56-.615,2.56-1.983.013-2.422-3.539-1.757-3.539-2.987,0-.477.414-.665.979-.665A3.926,3.926,0,0,1,60.7,37Zm6.125-3.8v1.33h1.9V42H70.2V33.2Zm14.66,7.267a2.33,2.33,0,0,1-1,.289c-.452,0-.715-.213-.715-.9v-3.2h1.971V35.574H79.761V33.741H78.331v1.832h-.941v1.079h.941v3.464a1.759,1.759,0,0,0,1.87,1.945,3.206,3.206,0,0,0,1.644-.489Zm4.481-5.2a3.39,3.39,0,1,0,3.477,3.376A3.266,3.266,0,0,0,85.962,35.273Zm0,1.23a2.175,2.175,0,1,1-2.046,2.171A2.016,2.016,0,0,1,85.962,36.5Zm11.183-3.3L94.07,38.737v1.1h4.28V42H99.73V39.841h1.305v-1.33H99.743L99.73,36.44H98.349l.013,2.071h-2.7L98.575,33.2Z" transform="translate(199.92 298.101)" fill="#88d3f4"/>
    <g id="Group_6" data-name="Group 6">
      <g id="Rectangle_Copy_4" data-name="Rectangle Copy 4" transform="translate(199.92 136.6)" fill="none" stroke-miterlimit="10">
        <path d="M0,0H202.054V184.268L0,59.7V0Z" stroke="none"/>
        <path d="M 5.36553955078125 5.365554809570312 L 5.36553955078125 56.70383453369141 L 196.6886291503906 174.6565093994141 L 196.6886291503906 5.365554809570312 L 5.36553955078125 5.365554809570312 M 0 1.52587890625e-05 L 202.0541687011719 1.52587890625e-05 L 202.0541687011719 184.2677001953125 L 0 59.69920349121094 L 0 1.52587890625e-05 Z" stroke="none" fill="#88d3f4"/>
      </g>
      <circle id="Oval" cx="61.185" cy="61.185" r="61.185" transform="translate(240.473 185.691)" fill="#fff"/>
      <path id="PDS" d="M18.726,13.857H4.318V49h6.727V38.658h7.681c8.836,0,13.906-4.669,13.906-12.7C32.633,18.225,27.562,13.857,18.726,13.857Zm-.351,18.877h-7.33v-13h7.33c5.02,0,7.882,2.109,7.882,6.426C26.257,30.575,23.4,32.734,18.375,32.734Zm34.44-18.877H38.205V49H52.563c10.844,0,18.575-7.33,18.575-17.571C71.139,21.137,63.458,13.857,52.814,13.857Zm.151,29.219H44.932V19.781h7.782a11.25,11.25,0,0,1,11.547,11.7C64.261,38.307,59.441,43.076,52.965,43.076ZM99.1,23.095l2.711-5.824a23.914,23.914,0,0,0-12.7-3.715c-7.882,0-13.153,3.916-13.153,10.041,0,12.5,18.877,8.334,18.877,15.664,0,2.46-2.259,3.866-6.024,3.866s-8.535-1.958-12.149-5.171L73.85,43.628a22.824,22.824,0,0,0,14.86,5.623c7.731,0,13.455-3.815,13.455-10.392.05-12.6-18.826-8.735-18.826-15.864,0-2.159,2.058-3.313,5.221-3.313A22.491,22.491,0,0,1,99.1,23.095Z" transform="translate(249.722 222.686)" fill="#88d3f4"/>
    </g>
  </g>
</svg>
