<svg id="Group_16" data-name="Group 16" xmlns="http://www.w3.org/2000/svg" xmlns:xlink="http://www.w3.org/1999/xlink" width="61.185" height="71.857" viewBox="0 0 61.185 71.857">
  <defs>
    <clipPath id="clip-path">
      <path id="Clip_2" data-name="Clip 2" d="M0,0H61.185V71.857H0Z" fill="none"/>
    </clipPath>
  </defs>
  <g id="Group_3" data-name="Group 3">
    <path id="Clip_2-2" data-name="Clip 2" d="M0,0H61.185V71.857H0Z" fill="none"/>
    <g id="Group_3-2" data-name="Group 3" clip-path="url(#clip-path)">
      <path id="Fill_1" data-name="Fill 1" d="M30.58,71.857l-22.171,0A8.411,8.411,0,0,1,2.37,69.476,8.509,8.509,0,0,1,0,63.4C0,46.879,0,30.121,0,13.6A8.427,8.427,0,0,1,2.3,7.572,8.4,8.4,0,0,1,8.247,5.12c.286-.008.592-.011.963-.011.266,0,.535,0,.81,0s.58,0,.879,0c0-.324,0-.643.009-.95.01-.692.019-1.344-.021-2A2.023,2.023,0,0,1,12.056,0h.84a1.92,1.92,0,0,1,1.26,2.107c-.029.674-.022,1.336-.015,2.036,0,.3.006.613.006.923H46.983c0-.308,0-.615.008-.911.009-.688.017-1.337-.02-2A2.015,2.015,0,0,1,48.155,0H49a1.965,1.965,0,0,1,1.252,2.117c-.028.656-.022,1.313-.015,2.009,0,.315.006.64.006.974h2.454a8.173,8.173,0,0,1,3.672.72,7.943,7.943,0,0,1,4.809,7.587c.016,9.142.013,18.429.01,27.41q0,5.271,0,10.542,0,1.905,0,3.81v.017c0,2.7,0,5.492,0,8.239a8.13,8.13,0,0,1-8.429,8.431ZM8.53,8.4A8.478,8.478,0,0,0,7.17,8.5a4.817,4.817,0,0,0-3.928,5.065c0,14.889,0,31.136,0,49.67,0,3.3,2.033,5.358,5.3,5.36q8.719,0,17.439,0c9.152,0,18.135,0,26.7-.009a6.537,6.537,0,0,0,1.591-.179,4.874,4.874,0,0,0,3.677-5q0-18.127,0-36.254V15.071q0-.271,0-.543c0-.466,0-.948-.009-1.421a4.713,4.713,0,0,0-3.616-4.525,15.858,15.858,0,0,0-2.769-.233c-.431-.012-.876-.023-1.322-.051,0,.29,0,.563,0,.826,0,.54,0,1.049,0,1.551a1.638,1.638,0,0,1-1.6,1.834H48.6c-.978,0-1.6-.7-1.617-1.836-.009-.506-.006-1,0-1.529V9.138q0-.36,0-.728H14.146V9.65c0,.119,0,.237,0,.356,0,.275.005.558-.007.837A1.63,1.63,0,0,1,12.8,12.49a1.854,1.854,0,0,1-.294.024,1.582,1.582,0,0,1-1.6-1.587c-.023-.576-.017-1.157-.011-1.72,0-.245.005-.5.005-.744-.421,0-.835-.016-1.235-.031S8.9,8.4,8.53,8.4Z" transform="translate(0)" fill="#0b6386"/>
    </g>
  </g>
  <path id="Fill_4" data-name="Fill 4" d="M11.015,3.554H2.379c-.211,0-.422.008-.632-.006A1.735,1.735,0,0,1,0,1.783,1.714,1.714,0,0,1,1.806.009Q11-.009,20.2.007a1.727,1.727,0,0,1,1.854,1.726,1.727,1.727,0,0,1-1.842,1.813c-3.066.02-6.131.007-9.2.007" transform="translate(29.881 21.344)" fill="#0b6386"/>
  <path id="Fill_6" data-name="Fill 6" d="M11.067,0q4.527,0,9.055,0A1.729,1.729,0,0,1,22.055,1.8a1.732,1.732,0,0,1-1.9,1.759q-9.16.006-18.321,0A1.71,1.71,0,0,1,.017,2.018,1.772,1.772,0,0,1,1.112.1a2.9,2.9,0,0,1,.9-.1q4.527-.01,9.055,0" transform="translate(29.881 54.071)" fill="#0b6386"/>
  <path id="Fill_8" data-name="Fill 8" d="M11.1,0q4.353,0,8.705,0a5.862,5.862,0,0,1,.84.042,1.673,1.673,0,0,1,1.4,1.567,1.735,1.735,0,0,1-1.111,1.817,3.159,3.159,0,0,1-.967.123q-8.951.01-17.9,0a4.243,4.243,0,0,1-.561-.017A1.746,1.746,0,0,1,0,1.746,1.644,1.644,0,0,1,1.558.034C3.288-.016,5.021.005,6.752,0,8.2,0,9.654,0,11.1,0" transform="translate(29.881 37.707)" fill="#0b6386"/>
  <path id="Fill_10" data-name="Fill 10" d="M5.5,6.114C6.948,4.752,8.359,3.422,9.769,2.09c.555-.524,1.1-1.062,1.661-1.574A1.624,1.624,0,0,1,13.789.5a1.591,1.591,0,0,1-.154,2.335Q10.2,6.118,6.744,9.377a1.626,1.626,0,0,1-2.513-.02Q2.419,7.59.634,5.795A1.59,1.59,0,0,1,.512,3.358a1.641,1.641,0,0,1,2.407.179c.857.839,1.7,1.692,2.586,2.577" transform="translate(9.249 17.786)" fill="#0b6386"/>
  <path id="Fill_12" data-name="Fill 12" d="M5.493,6.136l4.85-4.588c.369-.349.732-.706,1.113-1.042a1.6,1.6,0,0,1,2.306-.03,1.581,1.581,0,0,1-.1,2.333C11.8,4.6,9.914,6.374,8.037,8.155c-.469.445-.927.9-1.413,1.329a1.566,1.566,0,0,1-2.256-.008Q2.39,7.585.478,5.625A1.532,1.532,0,0,1,.486,3.394a1.58,1.58,0,0,1,2.3.023c.9.862,1.76,1.766,2.7,2.719" transform="translate(9.249 34.15)" fill="#0b6386"/>
  <path id="Fill_14" data-name="Fill 14" d="M5.494,6.133,9.382,2.46c.689-.65,1.37-1.309,2.07-1.947A1.6,1.6,0,1,1,13.669,2.8Q10.19,6.135,6.68,9.433a1.6,1.6,0,0,1-2.41-.039Q2.408,7.581.578,5.737A1.565,1.565,0,0,1,.473,3.4a1.611,1.611,0,0,1,2.358.056c.894.861,1.754,1.757,2.663,2.674" transform="translate(9.249 50.514)" fill="#0b6386"/>
</svg>
