<svg xmlns="http://www.w3.org/2000/svg" width="202.054" height="197.885" viewBox="0 0 202.054 197.885">
  <g id="Group_3" data-name="Group 3" transform="translate(-434.701 -363.555)">
    <g id="Rectangle_Copy_8" data-name="Rectangle Copy 8" transform="translate(434.701 363.555)" fill="none" stroke-miterlimit="10">
      <path d="M0,0H202.054V184.268L0,59.7V0Z" stroke="none"/>
      <path d="M 5.36553955078125 5.365554809570312 L 5.36553955078125 56.70383453369141 L 196.6886291503906 174.6565093994141 L 196.6886291503906 5.365554809570312 L 5.36553955078125 5.365554809570312 M 0 1.52587890625e-05 L 202.0541687011719 1.52587890625e-05 L 202.0541687011719 184.2677001953125 L 0 59.69920349121094 L 0 1.52587890625e-05 Z" stroke="none" fill="#0083b7"/>
    </g>
    <circle id="Oval_Copy_4" data-name="Oval Copy 4" cx="71.857" cy="71.857" r="71.857" transform="translate(475.254 410.511)" fill="#fff"/>
    <path id="PD" d="M18.726,13.857H4.318V49h6.727V38.658h7.681c8.836,0,13.906-4.669,13.906-12.7C32.633,18.225,27.562,13.857,18.726,13.857Zm-.351,18.877h-7.33v-13h7.33c5.02,0,7.882,2.109,7.882,6.426C26.257,30.575,23.4,32.734,18.375,32.734Zm34.44-18.877H38.205V49H52.563c10.844,0,18.575-7.33,18.575-17.571C71.139,21.137,63.458,13.857,52.814,13.857Zm.151,29.219H44.932V19.781h7.782a11.25,11.25,0,0,1,11.547,11.7C64.261,38.307,59.441,43.076,52.965,43.076Z" transform="translate(496.598 443.239)" fill="#0083b7"/>
    <path id="Professional_Develop" data-name="Professional Develop" d="M4.682,18.214h-3.6V27H2.761V24.414h1.92c2.209,0,3.477-1.167,3.477-3.175C8.158,19.306,6.89,18.214,4.682,18.214Zm-.088,4.719H2.761V19.683H4.594c1.255,0,1.971.527,1.971,1.607C6.564,22.394,5.849,22.933,4.594,22.933Zm6.527-1.356V20.285H9.489V27H11.12V23.762A1.932,1.932,0,0,1,13.4,21.8V20.222A2.444,2.444,0,0,0,11.12,21.578Zm6.363-1.343a3.3,3.3,0,0,0-3.552,3.4,3.309,3.309,0,0,0,3.552,3.426,3.3,3.3,0,0,0,3.527-3.426A3.289,3.289,0,0,0,17.484,20.235Zm0,1.393a1.875,1.875,0,0,1,1.883,2.033,1.9,1.9,0,1,1-3.79,0A1.88,1.88,0,0,1,17.484,21.628Zm7.669-2.611a1.649,1.649,0,0,1,.891.3l.6-1.243a2.966,2.966,0,0,0-1.607-.464,2.229,2.229,0,0,0-2.385,2.309v.64h-.879v1.192h.879V27h1.632V21.754h1.682V20.561H24.286v-.69A.793.793,0,0,1,25.152,19.018Zm4.33,1.217a3.258,3.258,0,0,0-3.414,3.426,3.241,3.241,0,0,0,3.452,3.4,3.727,3.727,0,0,0,2.824-1.155l-.879-.916a2.494,2.494,0,0,1-1.807.753,1.873,1.873,0,0,1-1.92-1.531H32.7C32.858,21.779,31.842,20.235,29.482,20.235ZM27.7,23.122A1.758,1.758,0,0,1,29.495,21.5a1.6,1.6,0,0,1,1.719,1.619Zm10.392-1.017.59-1.18a4.524,4.524,0,0,0-2.46-.715c-1.356,0-2.535.64-2.535,2.021-.013,2.385,3.489,1.707,3.489,2.949,0,.439-.427.628-.992.628a3.748,3.748,0,0,1-2.272-.828l-.565,1.142a4.312,4.312,0,0,0,2.774.941c1.431,0,2.648-.665,2.648-2.033,0-2.41-3.552-1.82-3.552-2.949,0-.414.377-.59.9-.59A4.117,4.117,0,0,1,38.092,22.105Zm6.05,0,.59-1.18a4.524,4.524,0,0,0-2.46-.715c-1.356,0-2.535.64-2.535,2.021-.013,2.385,3.489,1.707,3.489,2.949,0,.439-.427.628-.992.628a3.748,3.748,0,0,1-2.272-.828L39.4,26.121a4.312,4.312,0,0,0,2.774.941c1.431,0,2.648-.665,2.648-2.033,0-2.41-3.552-1.82-3.552-2.949,0-.414.377-.59.9-.59A4.117,4.117,0,0,1,44.142,22.105Zm2.887-4.644a.9.9,0,1,0,.879.9A.857.857,0,0,0,47.028,17.461Zm-.816,2.824V27h1.632V20.285Zm6.589-.05a3.3,3.3,0,0,0-3.552,3.4,3.541,3.541,0,0,0,7.079,0A3.289,3.289,0,0,0,52.8,20.235Zm0,1.393a1.875,1.875,0,0,1,1.883,2.033,1.9,1.9,0,1,1-3.79,0A1.88,1.88,0,0,1,52.8,21.628Zm8.986-1.406a2.557,2.557,0,0,0-2.41,1.318V20.285H57.747V27h1.632V23.7a1.756,1.756,0,0,1,1.757-1.933,1.392,1.392,0,0,1,1.494,1.519V27h1.644V22.808A2.349,2.349,0,0,0,61.788,20.222ZM71.679,27l-.013-4.393c-.013-1.494-1-2.385-2.761-2.385a5.4,5.4,0,0,0-2.949.828l.59,1.13a3.931,3.931,0,0,1,2-.628c1,0,1.519.464,1.519,1.243v.176H68.1c-1.632.013-2.548.778-2.548,2.021A2.116,2.116,0,0,0,67.9,27.075a2.635,2.635,0,0,0,2.171-.891V27ZM68.29,25.82c-.741,0-1.192-.364-1.192-.929,0-.59.4-.828,1.268-.828H70.06v.6A1.641,1.641,0,0,1,68.29,25.82Zm5.284-8.133V27h1.632V17.687Zm11.208.527H81.129V27h3.59a4.4,4.4,0,1,0,.063-8.786Zm.038,7.3H82.811V19.7h1.945a2.812,2.812,0,0,1,2.887,2.924A2.763,2.763,0,0,1,84.819,25.519Zm8.748-5.284a3.258,3.258,0,0,0-3.414,3.426,3.241,3.241,0,0,0,3.452,3.4,3.727,3.727,0,0,0,2.824-1.155l-.879-.916a2.494,2.494,0,0,1-1.807.753,1.873,1.873,0,0,1-1.92-1.531h4.958C96.944,21.779,95.927,20.235,93.568,20.235Zm-1.782,2.887A1.758,1.758,0,0,1,93.58,21.5,1.6,1.6,0,0,1,95.3,23.122ZM96.931,20.3,99.517,27H101.2l2.56-6.715h-1.644L100.4,25.393l-1.757-5.108Zm10.329-.063a3.258,3.258,0,0,0-3.414,3.426,3.241,3.241,0,0,0,3.452,3.4,3.727,3.727,0,0,0,2.824-1.155l-.879-.916a2.494,2.494,0,0,1-1.807.753,1.873,1.873,0,0,1-1.92-1.531h4.958C110.637,21.779,109.62,20.235,107.261,20.235Zm-1.782,2.887a1.758,1.758,0,0,1,1.795-1.619,1.6,1.6,0,0,1,1.719,1.619Zm6.476-5.435V27h1.632V17.687Zm6.665,2.548a3.3,3.3,0,0,0-3.552,3.4,3.541,3.541,0,0,0,7.079,0A3.289,3.289,0,0,0,118.619,20.235Zm0,1.393a1.875,1.875,0,0,1,1.883,2.033,1.9,1.9,0,1,1-3.79,0A1.88,1.88,0,0,1,118.619,21.628Zm8.9-1.393a2.551,2.551,0,0,0-2.259,1.155v-1.1h-1.632v9.15h1.632V25.908a2.6,2.6,0,0,0,2.284,1.155,3.092,3.092,0,0,0,3.15-3.389A3.139,3.139,0,0,0,127.518,20.235Zm-.364,5.422a1.878,1.878,0,0,1-1.9-2.033,1.893,1.893,0,1,1,3.778,0A1.882,1.882,0,0,1,127.154,25.657Zm13.756-5.435a2.492,2.492,0,0,0-2.5,1.607,2.232,2.232,0,0,0-2.309-1.607,2.483,2.483,0,0,0-2.36,1.305V20.285h-1.632V27h1.632V23.687a1.76,1.76,0,0,1,1.707-1.933,1.38,1.38,0,0,1,1.456,1.531V27h1.644V23.687a1.758,1.758,0,0,1,1.694-1.933,1.389,1.389,0,0,1,1.468,1.531V27h1.644V22.808A2.333,2.333,0,0,0,140.91,20.222Zm7.066.013a3.258,3.258,0,0,0-3.414,3.426,3.241,3.241,0,0,0,3.452,3.4,3.727,3.727,0,0,0,2.824-1.155l-.879-.916a2.494,2.494,0,0,1-1.807.753,1.873,1.873,0,0,1-1.92-1.531h4.958C151.352,21.779,150.336,20.235,147.976,20.235Zm-1.782,2.887a1.758,1.758,0,0,1,1.795-1.619,1.6,1.6,0,0,1,1.719,1.619Zm10.455-2.9a2.557,2.557,0,0,0-2.41,1.318V20.285h-1.632V27h1.632V23.7A1.756,1.756,0,0,1,156,21.766a1.392,1.392,0,0,1,1.494,1.519V27h1.644V22.808A2.349,2.349,0,0,0,156.649,20.222Zm7.869,5.133a2.282,2.282,0,0,1-.954.276c-.439,0-.7-.213-.7-.853V21.754h1.92V20.561h-1.92V18.716h-1.619v1.845h-.954l.013,1.192h.941v3.313a1.835,1.835,0,0,0,1.971,2.008,3.233,3.233,0,0,0,1.682-.489ZM1.079,33.214V42H2.761V38.523H6.74V37.055H2.761V34.683H7.129l.013-1.468Zm10.191,2.021a3.417,3.417,0,1,0,0,6.828,3.416,3.416,0,1,0,0-6.828Zm0,1.393a2.037,2.037,0,1,1-1.908,2.033A1.875,1.875,0,0,1,11.271,36.628Zm6.577-.05V35.285H16.216V42h1.632V38.762A1.932,1.932,0,0,1,20.132,36.8V35.222A2.444,2.444,0,0,0,17.847,36.578Zm6.275-3.364v1.494h2.736V42h1.694V34.708H31.29V33.214Zm10.229,2.021a3.414,3.414,0,1,0,.038,6.828,3.727,3.727,0,0,0,2.824-1.155l-.879-.916a2.494,2.494,0,0,1-1.807.753,1.873,1.873,0,0,1-1.92-1.531h4.958C37.728,36.779,36.712,35.235,34.352,35.235ZM32.57,38.122A1.758,1.758,0,0,1,34.365,36.5a1.6,1.6,0,0,1,1.719,1.619ZM44.556,42l-.013-4.393c-.013-1.494-1-2.385-2.761-2.385a5.4,5.4,0,0,0-2.949.828l.59,1.13a3.931,3.931,0,0,1,2-.628c1,0,1.519.464,1.519,1.243v.176H40.979c-1.632.013-2.548.778-2.548,2.021a2.116,2.116,0,0,0,2.347,2.083,2.635,2.635,0,0,0,2.171-.891V42Zm-3.389-1.18c-.741,0-1.192-.364-1.192-.929,0-.59.4-.828,1.268-.828h1.694v.6A1.641,1.641,0,0,1,41.167,40.82Zm9.84-3.414L52,36.465a3.423,3.423,0,0,0-2.811-1.23,3.414,3.414,0,0,0-.025,6.828,3.37,3.37,0,0,0,2.912-1.356l-1.017-.841a2.161,2.161,0,0,1-1.807.791,2,2,0,0,1,0-3.991A2.3,2.3,0,0,1,51.007,37.406Zm6.577-2.184a2.54,2.54,0,0,0-2.422,1.343V32.687H53.53V42h1.632V38.7a1.766,1.766,0,0,1,1.77-1.933,1.392,1.392,0,0,1,1.494,1.519V42h1.644V37.808A2.349,2.349,0,0,0,57.584,35.222Zm7.116.013a3.414,3.414,0,1,0,.038,6.828,3.727,3.727,0,0,0,2.824-1.155l-.879-.916a2.494,2.494,0,0,1-1.807.753,1.873,1.873,0,0,1-1.92-1.531h4.958C68.076,36.779,67.06,35.235,64.7,35.235Zm-1.782,2.887A1.758,1.758,0,0,1,64.713,36.5a1.6,1.6,0,0,1,1.719,1.619Zm8.045-1.544V35.285H69.332V42h1.632V38.762A1.932,1.932,0,0,1,73.247,36.8V35.222A2.444,2.444,0,0,0,70.963,36.578Zm7.405.527.59-1.18a4.524,4.524,0,0,0-2.46-.715c-1.356,0-2.535.64-2.535,2.021-.013,2.385,3.489,1.707,3.489,2.949,0,.439-.427.628-.992.628a3.748,3.748,0,0,1-2.272-.828l-.565,1.142a4.312,4.312,0,0,0,2.774.941c1.431,0,2.648-.665,2.648-2.033,0-2.41-3.552-1.82-3.552-2.949,0-.414.377-.59.9-.59A4.117,4.117,0,0,1,78.368,37.105Z" transform="translate(434.701 519.365)" fill="#0083b7"/>
  </g>
</svg>
