<svg xmlns="http://www.w3.org/2000/svg" width="202.054" height="200.32" viewBox="0 0 202.054 200.32">
  <g id="Group_5" data-name="Group 5" transform="translate(-198.497 -363.555)">
    <g id="Rectangle_Copy_6" data-name="Rectangle Copy 6" transform="translate(198.497 363.555)" fill="none" stroke-miterlimit="10">
      <path d="M0,0H202.054V184.268L0,59.7V0Z" stroke="none"/>
      <path d="M 5.36553955078125 5.365554809570312 L 5.36553955078125 56.70383453369141 L 196.6886291503906 174.6565093994141 L 196.6886291503906 5.365554809570312 L 5.36553955078125 5.365554809570312 M 0 1.52587890625e-05 L 202.0541687011719 1.52587890625e-05 L 202.0541687011719 184.2677001953125 L 0 59.69920349121094 L 0 1.52587890625e-05 Z" stroke="none" fill="#0b6386"/>
    </g>
    <circle id="Oval_Copy_2" data-name="Oval Copy 2" cx="61.185" cy="61.185" r="61.185" transform="translate(240.473 410.511)" fill="#fff"/>
    <path id="Vocational_Major_All" data-name="Vocational Major All" d="M.025,18.214,3.5,27H5.246l3.514-8.786H7.029L4.418,25.13,1.832,18.214Zm12.024,2.021a3.3,3.3,0,0,0-3.552,3.4,3.309,3.309,0,0,0,3.552,3.426,3.3,3.3,0,0,0,3.527-3.426A3.289,3.289,0,0,0,12.049,20.235Zm0,1.393a1.875,1.875,0,0,1,1.883,2.033,1.9,1.9,0,1,1-3.79,0A1.88,1.88,0,0,1,12.049,21.628Zm9.564.778.992-.941a3.423,3.423,0,0,0-2.811-1.23,3.251,3.251,0,0,0-3.414,3.426,3.231,3.231,0,0,0,3.389,3.4,3.37,3.37,0,0,0,2.912-1.356l-1.017-.841a2.161,2.161,0,0,1-1.807.791,1.83,1.83,0,0,1-1.832-2.008,1.822,1.822,0,0,1,1.832-1.983A2.3,2.3,0,0,1,21.613,22.406ZM29.407,27l-.013-4.393c-.013-1.494-1-2.385-2.761-2.385a5.4,5.4,0,0,0-2.949.828l.59,1.13a3.931,3.931,0,0,1,2-.628c1,0,1.519.464,1.519,1.243v.176H25.83c-1.632.013-2.548.778-2.548,2.021a2.116,2.116,0,0,0,2.347,2.083,2.635,2.635,0,0,0,2.171-.891V27Zm-3.389-1.18c-.741,0-1.192-.364-1.192-.929,0-.59.4-.828,1.268-.828h1.694v.6A1.641,1.641,0,0,1,26.018,25.82Zm8.773-.464a2.282,2.282,0,0,1-.954.276c-.439,0-.7-.213-.7-.853V21.754h1.92V20.561h-1.92V18.716H31.515v1.845h-.954l.013,1.192h.941v3.313a1.835,1.835,0,0,0,1.971,2.008,3.233,3.233,0,0,0,1.682-.489Zm2.473-7.895a.9.9,0,1,0,.879.9A.857.857,0,0,0,37.264,17.461Zm-.816,2.824V27H38.08V20.285Zm6.589-.05a3.3,3.3,0,0,0-3.552,3.4,3.309,3.309,0,0,0,3.552,3.426,3.3,3.3,0,0,0,3.527-3.426A3.289,3.289,0,0,0,43.037,20.235Zm0,1.393a1.875,1.875,0,0,1,1.883,2.033,1.9,1.9,0,1,1-3.79,0A1.88,1.88,0,0,1,43.037,21.628Zm8.986-1.406a2.557,2.557,0,0,0-2.41,1.318V20.285H47.982V27h1.632V23.7a1.756,1.756,0,0,1,1.757-1.933,1.392,1.392,0,0,1,1.494,1.519V27h1.644V22.808A2.349,2.349,0,0,0,52.024,20.222ZM61.914,27,61.9,22.607c-.013-1.494-1-2.385-2.761-2.385a5.4,5.4,0,0,0-2.949.828l.59,1.13a3.931,3.931,0,0,1,2-.628c1,0,1.519.464,1.519,1.243v.176H58.337c-1.632.013-2.548.778-2.548,2.021a2.116,2.116,0,0,0,2.347,2.083,2.635,2.635,0,0,0,2.171-.891V27Zm-3.389-1.18c-.741,0-1.192-.364-1.192-.929,0-.59.4-.828,1.268-.828h1.694v.6A1.641,1.641,0,0,1,58.525,25.82Zm5.284-8.133V27h1.632V17.687Zm7.556.527V27h1.556V20.725l2.6,5.372h1.092l2.6-5.372L79.222,27h1.531V18.214H78.82L76.071,23.85,73.31,18.214ZM88.434,27l-.013-4.393c-.013-1.494-1-2.385-2.761-2.385a5.4,5.4,0,0,0-2.949.828l.59,1.13a3.931,3.931,0,0,1,2-.628c1,0,1.519.464,1.519,1.243v.176H84.857c-1.632.013-2.548.778-2.548,2.021a2.116,2.116,0,0,0,2.347,2.083,2.635,2.635,0,0,0,2.171-.891V27Zm-3.389-1.18c-.741,0-1.192-.364-1.192-.929,0-.59.4-.828,1.268-.828h1.694v.6A1.641,1.641,0,0,1,85.045,25.82ZM91.07,17.4a.973.973,0,1,0,.992.979A.94.94,0,0,0,91.07,17.4Zm.816,9.79v-6.9H90.267v6.953a.745.745,0,0,1-.766.853,1.472,1.472,0,0,1-.828-.289l-.5,1.255a2.613,2.613,0,0,0,1.481.452A2.156,2.156,0,0,0,91.886,27.188Zm5.033-6.953a3.3,3.3,0,0,0-3.552,3.4,3.541,3.541,0,0,0,7.079,0A3.289,3.289,0,0,0,96.919,20.235Zm0,1.393A1.875,1.875,0,0,1,98.8,23.661a1.9,1.9,0,1,1-3.79,0A1.88,1.88,0,0,1,96.919,21.628Zm6.577-.05V20.285h-1.632V27H103.5V23.762A1.932,1.932,0,0,1,105.78,21.8V20.222A2.444,2.444,0,0,0,103.5,21.578ZM7.581,42H9.388l-3.8-8.786H3.841L-.013,42H1.732l.778-1.858H6.8ZM3.113,38.7l1.556-3.69L6.2,38.7Zm7.342-6.012V42h1.632V32.687Zm3.79,0V42h1.632V32.687ZM24.612,42.841l3.012-7.556H25.981l-1.745,4.882-1.908-4.882H20.634l2.774,6.6-.2.439a1.031,1.031,0,0,1-.979.678,1.358,1.358,0,0,1-.866-.339l-.7,1.243a2.487,2.487,0,0,0,1.669.6A2.323,2.323,0,0,0,24.612,42.841Zm6.652-7.606a3.417,3.417,0,1,0,0,6.828,3.416,3.416,0,1,0,0-6.828Zm0,1.393a2.037,2.037,0,1,1-1.908,2.033A1.875,1.875,0,0,1,31.264,36.628Zm9.5-1.343V38.6a1.731,1.731,0,0,1-1.682,1.92,1.357,1.357,0,0,1-1.443-1.506V35.285H36v4.2a2.326,2.326,0,0,0,2.435,2.573,2.425,2.425,0,0,0,2.334-1.305V42H42.41V35.285Zm11.484-.063a2.557,2.557,0,0,0-2.41,1.318V35.285H48.208V42H49.84V38.7A1.756,1.756,0,0,1,51.6,36.766a1.392,1.392,0,0,1,1.494,1.519V42h1.644V37.808A2.349,2.349,0,0,0,52.25,35.222Zm7.116.013a3.414,3.414,0,1,0,.038,6.828,3.727,3.727,0,0,0,2.824-1.155l-.879-.916a2.494,2.494,0,0,1-1.807.753,1.873,1.873,0,0,1-1.92-1.531h4.958C62.742,36.779,61.726,35.235,59.366,35.235Zm-1.782,2.887A1.758,1.758,0,0,1,59.379,36.5,1.6,1.6,0,0,1,61.1,38.122ZM66.8,35.235a3.414,3.414,0,1,0,.038,6.828,3.727,3.727,0,0,0,2.824-1.155l-.879-.916a2.494,2.494,0,0,1-1.807.753,1.873,1.873,0,0,1-1.92-1.531h4.958C70.172,36.779,69.156,35.235,66.8,35.235Zm-1.782,2.887A1.758,1.758,0,0,1,66.809,36.5a1.6,1.6,0,0,1,1.719,1.619Zm11.258-5.435v3.7a2.584,2.584,0,0,0-2.3-1.167,3.118,3.118,0,0,0-3.163,3.4,3.162,3.162,0,0,0,3.2,3.452,2.551,2.551,0,0,0,2.259-1.155V42H77.9V32.687Zm-1.908,8.02a2.051,2.051,0,1,1,1.908-2.046A1.9,1.9,0,0,1,74.365,40.707Zm12.953-.351a2.282,2.282,0,0,1-.954.276c-.439,0-.7-.213-.7-.853V36.754h1.92V35.561H85.66V33.716H84.041v1.845h-.954l.013,1.192h.941v3.313a1.835,1.835,0,0,0,1.971,2.008,3.233,3.233,0,0,0,1.682-.489Zm4.531-5.121a3.416,3.416,0,1,0,3.527,3.4A3.3,3.3,0,0,0,91.848,35.235Zm0,1.393a2.037,2.037,0,1,1-1.908,2.033A1.875,1.875,0,0,1,91.848,36.628ZM105.1,42h1.945l-2.636-4.117L106.9,35.3h-1.883l-2.761,2.786v-5.4h-1.632V42h1.632V40.142l1.029-1.079Zm7.091-6.778a2.557,2.557,0,0,0-2.41,1.318V35.285h-1.632V42h1.632V38.7a1.756,1.756,0,0,1,1.757-1.933,1.392,1.392,0,0,1,1.494,1.519V42h1.644V37.808A2.349,2.349,0,0,0,112.193,35.222Zm7.254.013a3.416,3.416,0,1,0,3.527,3.4A3.3,3.3,0,0,0,119.448,35.235Zm0,1.393a2.037,2.037,0,1,1-1.908,2.033A1.875,1.875,0,0,1,119.448,36.628Zm3.677-1.33,2.46,6.7h1.669l1.594-4.732L130.455,42h1.669l2.435-6.715h-1.644l-1.607,5.071-1.619-5.071h-1.644l-1.594,5.071-1.644-5.071Z" transform="translate(199.92 519.365)" fill="#0b6386"/>
    <path id="VCEVM" d="M.1,13.857,14.007,49h6.978L35.042,13.857H28.114L17.672,41.52,7.33,13.857ZM64.311,24.2l3.916-4.92a19.53,19.53,0,0,0-13.555-5.623c-10.493,0-18.575,7.681-18.575,17.722C36.1,41.52,44.079,49.3,54.421,49.3a20.045,20.045,0,0,0,13.856-6.024l-3.966-4.418a14.071,14.071,0,0,1-9.539,4.117,11.673,11.673,0,1,1,0-23.345A13.2,13.2,0,0,1,64.311,24.2ZM73.8,13.857V49h26.357V43.126H80.527V34.29H97.6V28.416H80.527V19.731H99.554V13.857Zm28.968,0L116.674,49h6.978l14.057-35.143h-6.928L120.339,41.52,110,13.857Zm39.41,0V49H148.4V23.9l10.392,21.487h4.368L173.555,23.9l.05,25.1h6.125V13.857H172L161,36.4,149.959,13.857Z" transform="translate(198.497 451.776)" fill="#0b6386"/>
  </g>
</svg>
