<svg xmlns="http://www.w3.org/2000/svg" width="202.054" height="207.845" viewBox="0 0 202.054 207.845">
  <g id="Group_4" data-name="Group 4" transform="translate(-435.412 -136.6)">
    <g id="Rectangle_Copy_5" data-name="Rectangle Copy 5" transform="translate(435.412 136.6)" fill="none" stroke-miterlimit="10">
      <path d="M0,0H202.054V184.268L0,59.7V0Z" stroke="none"/>
      <path d="M 5.36553955078125 5.365554809570312 L 5.36553955078125 56.70383453369141 L 196.6886291503906 174.6565093994141 L 196.6886291503906 5.365554809570312 L 5.36553955078125 5.365554809570312 M 0 1.52587890625e-05 L 202.0541687011719 1.52587890625e-05 L 202.0541687011719 184.2677001953125 L 0 59.69920349121094 L 0 1.52587890625e-05 Z" stroke="none" fill="#2baae1"/>
    </g>
    <circle id="Oval_Copy" data-name="Oval Copy" cx="61.185" cy="61.185" r="61.185" transform="translate(467.428 184.979)" fill="#fff"/>
    <path id="Work_Related_Skills" data-name="Work Related Skills" d="M.025,18.214,2.937,27H4.669l1.983-6.589L8.61,27h1.745l2.912-8.786H11.534l-2,6.916L7.518,18.214H5.861L3.853,25.13,1.832,18.214ZM16.4,20.235a3.3,3.3,0,0,0-3.552,3.4A3.309,3.309,0,0,0,16.4,27.063a3.3,3.3,0,0,0,3.527-3.426A3.289,3.289,0,0,0,16.4,20.235Zm0,1.393a1.875,1.875,0,0,1,1.883,2.033,1.9,1.9,0,1,1-3.79,0A1.88,1.88,0,0,1,16.4,21.628Zm6.577-.05V20.285H21.349V27h1.632V23.762A1.932,1.932,0,0,1,25.265,21.8V20.222A2.444,2.444,0,0,0,22.981,21.578ZM30.951,27H32.9L30.26,22.883,32.745,20.3H30.863L28.1,23.084v-5.4H26.47V27H28.1V25.142l1.029-1.079Zm14.3,0-1.933-2.912a2.858,2.858,0,0,0,1.745-2.849c0-1.933-1.293-3.025-3.564-3.025H37.829V27H39.51V24.414h1.983a2.521,2.521,0,0,0,.314-.013L43.326,27ZM39.51,19.683h1.983c1.255,0,1.958.527,1.958,1.607,0,1.1-.7,1.644-1.958,1.644H39.51Zm10.129.552a3.258,3.258,0,0,0-3.414,3.426,3.241,3.241,0,0,0,3.452,3.4A3.727,3.727,0,0,0,52.5,25.908l-.879-.916a2.494,2.494,0,0,1-1.807.753,1.873,1.873,0,0,1-1.92-1.531h4.958C53.015,21.779,52,20.235,49.639,20.235Zm-1.782,2.887A1.758,1.758,0,0,1,49.652,21.5a1.6,1.6,0,0,1,1.719,1.619Zm6.476-5.435V27h1.632V17.687ZM63.633,27l-.013-4.393c-.013-1.494-1-2.385-2.761-2.385a5.4,5.4,0,0,0-2.949.828l.59,1.13a3.931,3.931,0,0,1,2-.628c1,0,1.519.464,1.519,1.243v.176H60.056c-1.632.013-2.548.778-2.548,2.021a2.116,2.116,0,0,0,2.347,2.083,2.635,2.635,0,0,0,2.171-.891V27Zm-3.389-1.18c-.741,0-1.192-.364-1.192-.929,0-.59.4-.828,1.268-.828h1.694v.6A1.641,1.641,0,0,1,60.245,25.82Zm8.773-.464a2.282,2.282,0,0,1-.954.276c-.439,0-.7-.213-.7-.853V21.754h1.92V20.561h-1.92V18.716H65.742v1.845h-.954l.013,1.192h.941v3.313a1.835,1.835,0,0,0,1.971,2.008,3.233,3.233,0,0,0,1.682-.489Zm4.393-5.121A3.258,3.258,0,0,0,70,23.661a3.241,3.241,0,0,0,3.452,3.4,3.727,3.727,0,0,0,2.824-1.155l-.879-.916a2.494,2.494,0,0,1-1.807.753,1.873,1.873,0,0,1-1.92-1.531h4.958C76.787,21.779,75.77,20.235,73.411,20.235Zm-1.782,2.887A1.758,1.758,0,0,1,73.423,21.5a1.6,1.6,0,0,1,1.719,1.619Zm11.258-5.435v3.7a2.584,2.584,0,0,0-2.3-1.167,3.118,3.118,0,0,0-3.163,3.4,3.162,3.162,0,0,0,3.2,3.452,2.551,2.551,0,0,0,2.259-1.155V27h1.632V17.687Zm-1.908,8.02a1.9,1.9,0,0,1-1.908-2.046,1.912,1.912,0,0,1,1.908-2.046,1.891,1.891,0,0,1,1.908,2.046A1.891,1.891,0,0,1,80.979,25.707Zm14.986-5.184.678-1.456a5.979,5.979,0,0,0-3.175-.929c-1.971,0-3.288.979-3.288,2.51,0,3.125,4.719,2.083,4.719,3.916,0,.615-.565.966-1.506.966a4.941,4.941,0,0,1-3.037-1.293l-.7,1.418a5.706,5.706,0,0,0,3.715,1.406c1.933,0,3.364-.954,3.364-2.6.013-3.15-4.707-2.184-4.707-3.966,0-.54.515-.828,1.305-.828A5.623,5.623,0,0,1,95.965,20.524ZM102.805,27h1.945l-2.636-4.117L104.6,20.3h-1.883l-2.761,2.786v-5.4H98.324V27h1.632V25.142l1.029-1.079Zm3.866-9.539a.9.9,0,1,0,.879.9A.857.857,0,0,0,106.671,17.461Zm-.816,2.824V27h1.632V20.285Zm3.715-2.6V27H111.2V17.687Zm3.79,0V27h1.632V17.687Zm7.706,4.418.59-1.18a4.524,4.524,0,0,0-2.46-.715c-1.356,0-2.535.64-2.535,2.021-.013,2.385,3.489,1.707,3.489,2.949,0,.439-.427.628-.992.628a3.748,3.748,0,0,1-2.272-.828l-.565,1.142a4.312,4.312,0,0,0,2.774.941c1.431,0,2.648-.665,2.648-2.033,0-2.41-3.552-1.82-3.552-2.949,0-.414.377-.59.9-.59A4.117,4.117,0,0,1,121.067,22.105ZM.025,33.214,3.5,42H5.246l3.514-8.786H7.029L4.418,40.13,1.832,33.214ZM16.078,35.8l.979-1.23a4.882,4.882,0,0,0-3.389-1.406,4.458,4.458,0,1,0-.063,8.911,5.011,5.011,0,0,0,3.464-1.506l-.992-1.1a3.518,3.518,0,0,1-2.385,1.029,2.918,2.918,0,1,1,0-5.836A3.3,3.3,0,0,1,16.078,35.8Zm2.372-2.586V42h6.589V40.532H20.132V38.323H24.4V36.854H20.132V34.683h4.757V33.214Zm13.568,5.121V33.214H30.336v5.121a3.552,3.552,0,0,0,3.9,3.74,3.519,3.519,0,0,0,3.853-3.74V33.214H36.41v5.121a2.035,2.035,0,0,1-2.171,2.234A2.079,2.079,0,0,1,32.018,38.335Zm12.036-3.113a2.557,2.557,0,0,0-2.41,1.318V35.285H40.013V42h1.632V38.7A1.756,1.756,0,0,1,43.4,36.766a1.392,1.392,0,0,1,1.494,1.519V42h1.644V37.808A2.349,2.349,0,0,0,44.054,35.222Zm5.133-2.761a.9.9,0,1,0,.879.9A.857.857,0,0,0,49.187,32.461Zm-.816,2.824V42H50V35.285Zm7.2,5.071a2.282,2.282,0,0,1-.954.276c-.439,0-.7-.213-.7-.853V36.754h1.92V35.561h-1.92V33.716H52.3v1.845h-.954l.013,1.192H52.3v3.313a1.835,1.835,0,0,0,1.971,2.008,3.233,3.233,0,0,0,1.682-.489Zm5.635-3.251.59-1.18a4.524,4.524,0,0,0-2.46-.715c-1.356,0-2.535.64-2.535,2.021-.013,2.385,3.489,1.707,3.489,2.949,0,.439-.427.628-.992.628a3.748,3.748,0,0,1-2.272-.828l-.565,1.142a4.312,4.312,0,0,0,2.774.941c1.431,0,2.648-.665,2.648-2.033,0-2.41-3.552-1.82-3.552-2.949,0-.414.377-.59.9-.59A4.117,4.117,0,0,1,61.211,37.105Zm6.112-3.9v1.481h1.832V42H70.85V33.2Zm14.785,7.154a2.282,2.282,0,0,1-.954.276c-.439,0-.7-.213-.7-.853V36.754h1.92V35.561h-1.92V33.716H78.833v1.845h-.954l.013,1.192h.941v3.313A1.835,1.835,0,0,0,80.8,42.075a3.233,3.233,0,0,0,1.682-.489Zm4.531-5.121a3.416,3.416,0,1,0,3.527,3.4A3.3,3.3,0,0,0,86.639,35.235Zm0,1.393a2.037,2.037,0,1,1-1.908,2.033A1.875,1.875,0,0,1,86.639,36.628ZM97.7,33.2l-2.949,5.485v1.23h4.2V42h1.556V39.917h1.268V38.473h-1.255l-.013-2.021H98.952v2.021H96.517l2.8-5.271Z" transform="translate(435.412 302.37)" fill="#2baae1"/>
    <path id="WRS" d="M.1,13.857,11.748,49h6.928l7.932-26.357L34.44,49h6.978L53.066,13.857H46.137L38.155,41.52,30.072,13.857H23.445L15.413,41.52,7.33,13.857ZM86.6,49,78.87,37.353c4.518-1.908,6.978-5.874,6.978-11.4,0-7.731-5.171-12.1-14.258-12.1H56.931V49h6.727V38.658h7.932a10.083,10.083,0,0,0,1.255-.05L78.921,49ZM63.659,19.731h7.932c5.02,0,7.832,2.109,7.832,6.426,0,4.418-2.811,6.577-7.832,6.577H63.659Zm51.66,3.364,2.711-5.824a23.914,23.914,0,0,0-12.7-3.715c-7.882,0-13.153,3.916-13.153,10.041,0,12.5,18.877,8.334,18.877,15.664,0,2.46-2.259,3.866-6.024,3.866s-8.535-1.958-12.149-5.171l-2.811,5.673a22.824,22.824,0,0,0,14.86,5.623c7.731,0,13.455-3.815,13.455-10.392.05-12.6-18.826-8.735-18.826-15.864,0-2.159,2.058-3.313,5.221-3.313A22.491,22.491,0,0,1,115.318,23.095Z" transform="translate(470.985 222.686)" fill="#2baae1"/>
  </g>
</svg>
